# xmcd
#
# Track frame offsets:
#       150
#       11878
#       34461
#       52251
#       64034
#       80314
#       89752
#       101217
#       116792
#       129117
#       140424
#       151343
#       162232
#       171772
#       183732
#       201545
#       218010
#       234887
#       250931
#       262109
#
# Disc length: 3720 seconds
#
# Revision: 0
# Processed by: cddbd v1.5.2PL0 Copyright (c) Steve Scherf et al.
# Submitted via: CD-DA_X-Tractor v0.24
#
DISCID=2a0e8614
DTITLE=Various Artist - Sounds Like Nashville Volume 2
DYEAR=2016
DGENRE=Country
TTITLE0=Steve Earle/Guitar Town
TTITLE1=Joe Ely/West Texas Waltz
TTITLE2=Nanci Griffith/Lone Star State Of Mind
TTITLE3=Ernest Tubb/Waltz Across Texas
TTITLE4=The Soggy Bottom Boys/In The Jailhouse Now
TTITLE5=Bill Munroe and The Bluegrass Boys/Blue Moon of Kentucky
TTITLE6=Johnny Cash/I Walk The Line
TTITLE7=Kacey Musgraves/Merry Go 'Round
TTITLE8=Hank Williams/Lovesick Blues
TTITLE9=Crystal Gayle/Don't It Make My Brown Eyes Blue
TTITLE10=The Louvin Brothers/Tennessee Waltz
TTITLE11=Faron Young/Hello Walls
TTITLE12=Loretta Lynn/Don't Come Home A-Drinkin'
TTITLE13=Hank Thompson/The Wild Side Of Life
TTITLE14=Shania Twain/That Don't Impress Me Much
TTITLE15=Kenny Rogers/Lucille
TTITLE16=Lady Antebellum/American Honey
TTITLE17=The Band/The Night They Drove Old Dixie Down
TTITLE18=Roger Miller/King Of The Road
TTITLE19=The Shires/Nashville Grey Skies
EXTD=
EXTT0=
EXTT1=
EXTT2=
EXTT3=
EXTT4=
EXTT5=
EXTT6=
EXTT7=
EXTT8=
EXTT9=
EXTT10=
EXTT11=
EXTT12=
EXTT13=
EXTT14=
EXTT15=
EXTT16=
EXTT17=
EXTT18=
EXTT19=
PLAYORDER=
